<svg width="80" height="36" viewBox="0 0 80 36" fill="currentColor" xmlns="http://www.w3.org/2000/svg">
<path d="M17.0534 0.234416C13.2728 1.78348 10.1994 7.89749 9.09786 16.0952C8.74429 18.6587 8.74429 24.7453 9.08427 26.5822C10.0815 31.8829 12.5385 34.8119 16.455 35.3694C19.1205 35.7395 21.6091 34.4921 23.5946 31.8052C23.9346 31.3528 24.2338 30.9827 24.2746 30.9827C24.3154 30.9827 24.5466 31.3939 24.7777 31.9149C25.9609 34.4509 28.6399 35.767 31.8221 35.3694C33.2228 35.2049 34.3108 34.8211 35.2899 34.1631C36.8266 33.1349 38.3905 31.1198 39.5465 28.6522L40.1448 27.391L40.4576 28.1861C42.7423 33.9711 45.8973 36.5758 48.9299 35.1775C49.8003 34.7799 51.133 33.5736 51.7857 32.614C52.0169 32.2713 52.2073 31.9697 52.2345 31.9423C52.2617 31.9149 52.5609 32.0108 52.9281 32.1479C53.3905 32.3261 53.9072 32.4084 54.6688 32.3947C56.1919 32.3672 57.1438 31.9834 58.1638 30.969L58.9661 30.1876L59.4013 31.0238C60.4076 32.9704 62.6651 34.6154 65.1538 35.246C66.7313 35.6436 69.8047 35.671 71.2598 35.3009C73.4197 34.7568 75.3355 33.4967 76.6995 31.7229C78.0186 30.0505 79.5417 26.5959 79.9089 24.43C80.1401 23.114 79.9089 21.373 79.5009 21.373C79.4329 21.373 79.0385 22.2503 78.6034 23.3196C77.6514 25.6912 76.5363 27.9805 75.7339 29.2006C74.3604 31.298 71.8854 33.1623 70.1855 33.368C67.8056 33.6696 65.9561 31.4076 65.5345 27.6515L65.4393 26.829L66.0377 27.1443C66.9353 27.5967 68.2816 27.6652 69.0703 27.2814C70.403 26.6234 71.763 24.4574 72.4293 21.9213C72.6741 20.9891 72.7421 20.3723 72.7421 18.8369C72.7557 17.0822 72.7285 16.8629 72.4429 16.3282C71.7222 14.9711 70.3351 13.943 68.6759 13.5454C67.6016 13.2987 65.6569 13.3261 64.8682 13.614C61.7676 14.7381 59.2789 18.0829 58.4766 22.2092C58.3195 23.2303 58.2286 24.2606 58.2046 25.2936C58.1774 27.2128 58.1638 27.2402 57.7422 27.8571C56.9262 29.0498 56.1647 29.6529 55.1447 29.886C54.6824 29.9957 53.7304 29.8312 53.5944 29.6255C53.5672 29.5707 53.744 28.8716 54.016 28.0902C54.5843 26.2943 55.0341 24.4625 55.3623 22.6068C55.5527 21.6197 55.6071 20.5779 55.6207 18.3571C55.6207 15.5331 55.6071 15.3824 55.2943 14.6832C54.8728 13.7373 54.4648 13.422 53.676 13.422C52.2345 13.422 50.8202 14.7381 49.6235 17.1919C48.5763 19.3578 48.1956 20.948 48.114 23.5115C48.0052 26.5137 48.4675 28.5288 49.6371 30.1602C49.8955 30.5303 50.113 30.8867 50.113 30.9416C50.113 31.2294 49.2835 31.8189 48.7939 31.8874C48.3315 31.9423 48.182 31.9011 47.774 31.531C46.4141 30.3384 45.5981 26.4726 45.5709 21.1674C45.5709 18.6724 45.6117 18.0966 45.8701 16.8903C46.3325 14.7381 46.2509 14.176 45.3669 13.7373C44.9725 13.5454 44.5782 13.4906 43.4494 13.518C39.9544 13.5728 36.3779 14.9711 36.3779 16.2734C36.3779 16.6984 36.6634 17.1233 37.629 18.1652C38.1186 18.6861 38.1594 18.7958 38.3633 20.1529C38.4721 20.9343 38.7169 22.2229 38.9073 23.0043L39.2337 24.43L38.2273 26.5C37.0306 28.9401 36.1331 30.3658 35.0859 31.4214C33.4132 33.1349 31.9717 33.2583 31.183 31.7504C30.9246 31.2568 30.8838 30.9827 30.8974 29.8723C30.9382 27.487 31.5365 24.6493 32.9645 20.0707C33.9572 16.9451 34.2292 15.7662 34.1748 14.834C34.134 14.0526 34.1204 14.0389 33.59 13.7647C33.1412 13.5454 32.7877 13.5043 31.5501 13.518C28.3135 13.5454 24.0162 14.9711 23.3634 16.2049C23.0914 16.7532 23.241 17.2604 23.9754 18.2474C24.7097 19.2345 24.7097 19.2619 24.261 22.2915C24.1114 23.3333 23.9482 24.8824 23.9074 25.7323L23.8258 27.2951L23.1594 28.4055C21.6635 30.9141 19.9364 32.0245 18.6717 31.2843C17.5022 30.5851 16.5638 27.5967 16.319 23.8268L16.2102 22.3737L16.6998 22.0721C17.4342 21.6197 18.7397 20.1392 19.5013 18.8917C21.4867 15.6428 22.9146 10.4062 22.9146 6.44439C22.9011 3.16804 22.1939 1.35852 20.5756 0.467461C19.6372 -0.0534634 18.0189 -0.149423 17.0534 0.234416ZM20.698 4.75823C20.8612 5.15578 20.8612 5.51221 20.7388 7.03385C20.3308 11.9141 18.7533 16.7532 16.8358 19.0425L16.2102 19.7965L16.2918 17.329C16.4142 13.8059 16.9446 10.4747 17.8421 7.73299C18.8213 4.68969 20.1132 3.34625 20.698 4.75823ZM70.2399 17.1919C71.1102 18.0692 70.4574 22.0036 69.0975 24.0187C68.0504 25.5541 67.044 25.7049 65.9153 24.4711C65.4121 23.9091 65.3713 23.8405 65.4393 23.2099C65.7113 20.3586 67.0848 17.6991 68.6624 16.9725C69.3151 16.671 69.7639 16.7258 70.2399 17.1919Z" fill="currentColor" />
<path d="M28.9255 3.68897C27.6608 4.03168 26.5048 4.64857 25.7705 5.37512C24.9545 6.19763 24.6417 6.88306 24.6282 7.89749C24.6146 8.62404 24.6689 8.81596 25.0225 9.33689C25.9065 10.5844 28.0959 11.1464 30.1222 10.6255C33.658 9.73444 35.6163 7.02014 34.2564 4.89532C33.4676 3.66155 31.0334 3.11321 28.9255 3.68897Z" fill="currentColor"/>
<path d="M1.83589 28.3232C1.04714 28.6111 0.707158 28.8716 0.367178 29.4473C0.0271984 30.0231 0 30.1739 0 31.7915C0 33.7929 0.16319 34.259 1.22393 35.1912C1.57248 35.511 1.98887 35.7464 2.44136 35.8795C2.89385 36.0125 3.3705 36.0397 3.83497 35.9589C5.80686 35.671 6.55481 34.4509 6.43242 31.7366C6.31003 29.0498 5.53487 28.2273 3.12782 28.241C2.6956 28.2293 2.26321 28.2568 1.83589 28.3232Z" fill="currentColor"/>
</svg>